<mxfile host="app.diagrams.net" modified="2024-01-23T04:00:06.793Z" agent="Mozilla/5.0 (Macintosh; Intel Mac OS X 10_15_7) AppleWebKit/605.1.15 (KHTML, like Gecko) Version/16.5 Safari/605.1.15" version="22.1.21" etag="YBUslNRQJk-y2y0ETRK5" type="github">
  <diagram name="Page-1" id="9qFufjebwW6pSLKwtH1A">
    <mxGraphModel>
      <root>
        <mxCell id="0" />
        <mxCell id="1" parent="0" />
      </root>
    </mxGraphModel>
  </diagram>
</mxfile>
